<svg width="39" height="37" viewBox="0 0 39 37" fill="none" xmlns="http://www.w3.org/2000/svg">
<path d="M27.8133 18.5641C28.4543 18.3666 29.1419 18.3856 29.7712 18.6184C30.0084 18.7162 30.2419 18.8285 30.4898 18.9517C30.7377 19.0748 30.9389 19.2125 31.1616 19.361C31.6105 19.6673 32.0259 20.0206 32.4011 20.4151C33.2081 21.2848 33.8142 22.3239 34.1758 23.4578C34.5874 24.7574 34.7209 26.1303 34.5674 27.4858C34.3893 29.0152 33.9092 30.4932 33.1555 31.8325C32.6837 32.6565 31.9567 33.3017 31.0862 33.669C30.8856 33.7495 30.6789 33.8137 30.4682 33.861C30.27 33.9051 30.0677 33.9282 29.8647 33.9298C29.4913 33.9416 29.1209 33.8595 28.7869 33.6908C28.5079 33.5417 28.2738 33.3199 28.1088 33.0484C27.9439 32.777 27.8542 32.4659 27.8492 32.1477C27.8297 31.4518 28.0366 30.7686 28.4384 30.2025C28.9407 29.4375 29.2977 28.5851 29.491 27.6886C29.671 26.8549 29.6905 25.9941 29.5485 25.153C29.5162 24.9538 29.4659 24.7509 29.4156 24.559C29.3904 24.4648 29.3617 24.3706 29.333 24.2764C29.3042 24.1823 29.2647 24.0844 29.2288 23.9939C29.1617 23.8112 29.085 23.6322 28.9988 23.4578C28.909 23.2839 28.8156 23.1173 28.7186 22.9543C28.3224 22.3203 27.8204 21.7603 27.2348 21.2989C26.8354 21.0124 26.5241 20.6182 26.3367 20.1615C26.2743 19.9906 26.2668 19.8042 26.3152 19.6287C26.3635 19.4532 26.4653 19.2975 26.6061 19.1835C26.7609 19.0356 26.9379 18.9133 27.1307 18.8213C27.3486 18.7116 27.5774 18.6254 27.8133 18.5641V18.5641Z" fill="#F1F1F1"/>
<path d="M23.6493 25.566C24.1411 26.0254 24.4694 26.6351 24.5834 27.3011C24.6194 27.5593 24.641 27.8193 24.6481 28.0799C24.6624 28.3441 24.6624 28.609 24.6481 28.8732C24.6265 29.1376 24.5942 29.4057 24.5475 29.6737C24.4994 29.9452 24.4358 30.2137 24.3571 30.4779C24.0166 31.6186 23.4274 32.6681 22.6326 33.5496C21.7216 34.5545 20.6115 35.3554 19.3741 35.9004C17.9703 36.5213 16.4556 36.8467 14.9228 36.8567C13.974 36.8591 13.0509 36.5459 12.2966 35.9656C11.9736 35.7361 11.7029 35.4396 11.5028 35.096C11.3027 34.7524 11.1777 34.3696 11.1362 33.9734C11.126 33.6553 11.2006 33.3403 11.3523 33.0613C11.5039 32.7822 11.7271 32.5493 11.9984 32.3868C12.2756 32.2136 12.5808 32.091 12.9002 32.0246C13.2536 31.9447 13.6168 31.9178 13.978 31.9449C14.8866 32.0065 15.7985 31.8934 16.6652 31.6116C17.074 31.4785 17.4697 31.3075 17.8472 31.1009C18.034 30.9922 18.2065 30.8799 18.3825 30.764C18.5519 30.6525 18.715 30.5315 18.8711 30.4018C19.1767 30.1445 19.457 29.8582 19.7082 29.5469C19.8303 29.3948 19.9453 29.2318 20.0675 29.0724C20.1896 28.913 20.2722 28.7537 20.3621 28.5798C20.7089 27.917 20.9398 27.199 21.0447 26.4571C21.0808 26.1826 21.1508 25.9137 21.2531 25.6566C21.2961 25.5482 21.3466 25.4429 21.4039 25.3415C21.4291 25.298 21.4578 25.2545 21.4866 25.2147L21.5764 25.0988C21.6938 24.9617 21.8503 24.8645 22.0246 24.8204C22.1988 24.7763 22.3823 24.7875 22.55 24.8524C22.6478 24.881 22.7428 24.9186 22.8338 24.9647C22.9333 25.0121 23.0294 25.0666 23.1212 25.1277C23.311 25.2561 23.4879 25.4029 23.6493 25.566V25.566Z" fill="white"/>
<path d="M15.5624 25.4319C15.4102 26.0899 15.0495 26.6799 14.5349 27.1126C13.6922 27.769 12.7213 28.2382 11.686 28.4891C10.5359 28.7585 9.341 28.7684 8.18671 28.5181C6.86559 28.2276 5.6204 27.6586 4.53301 26.8482C3.2987 25.9288 2.26329 24.7653 1.49005 23.4288C1.01181 22.6024 0.820885 21.6386 0.947561 20.6903C0.947561 20.5817 0.979882 20.473 1.00144 20.368C1.02299 20.2629 1.05892 20.1579 1.09125 20.0564C1.15551 19.8639 1.23606 19.6773 1.33198 19.4986C1.51163 19.1728 1.76678 18.8957 2.07565 18.6908C2.34401 18.5227 2.65208 18.43 2.96794 18.4224C3.28379 18.4147 3.59593 18.4924 3.87197 18.6474C4.16212 18.7963 4.42269 18.9977 4.64078 19.2414C4.76232 19.3681 4.87291 19.5051 4.97132 19.6507C5.07097 19.8049 5.16213 19.9646 5.24436 20.1289C5.64412 20.9506 6.19519 21.6881 6.86822 22.3023C7.49752 22.8753 8.229 23.3228 9.0238 23.6208C9.39604 23.7664 9.78092 23.8767 10.1735 23.9504C10.5534 24.0123 10.9385 24.0365 11.3231 24.0228C11.6966 24.0091 12.0681 23.9618 12.4332 23.8816C12.7924 23.8008 13.1445 23.6905 13.4859 23.552C13.7406 23.4468 14.0073 23.3738 14.2798 23.3346C14.3988 23.318 14.519 23.3107 14.6391 23.3129C14.7381 23.314 14.8368 23.3249 14.9337 23.3455C15.1128 23.377 15.278 23.4635 15.4065 23.5932C15.5351 23.7228 15.6209 23.8893 15.6522 24.0699C15.7303 24.5247 15.6995 24.9916 15.5624 25.4319V25.4319Z" fill="#F1F1F1"/>
<path d="M11.6357 18.2926C10.9951 18.4936 10.3064 18.4745 9.67774 18.2382C9.44062 18.1404 9.2071 18.0282 8.95921 17.905C8.72841 17.7803 8.50417 17.6437 8.28739 17.4957C7.83851 17.1894 7.42304 16.8361 7.04793 16.4416C6.24164 15.5727 5.63562 14.5349 5.27316 13.4025C4.86232 12.1015 4.72768 10.7278 4.87798 9.37089C5.05675 7.84162 5.53678 6.36377 6.28988 5.02415C6.76328 4.1992 7.49127 3.55297 8.36284 3.18402C8.56295 3.1031 8.76971 3.04008 8.98077 2.99568C9.17738 2.94862 9.37866 2.92431 9.58073 2.92322C9.95439 2.91285 10.3247 2.99624 10.6585 3.16591C10.9382 3.31407 11.173 3.53568 11.3381 3.80731C11.5031 4.07893 11.5923 4.39048 11.5962 4.70901C11.6134 5.40455 11.4067 6.08699 11.007 6.65417C10.5012 7.41595 10.144 8.26787 9.95438 9.16442C9.77508 9.99811 9.75434 10.8585 9.89329 11.7C9.92921 11.9029 9.97951 12.1021 10.0298 12.2941C10.055 12.3919 10.0837 12.486 10.1125 12.5802C10.1412 12.6744 10.1771 12.7686 10.213 12.8592C10.2849 13.0439 10.3603 13.2214 10.4466 13.3952C10.5328 13.5691 10.6298 13.7394 10.7268 13.8987C11.1218 14.5336 11.624 15.0938 12.2105 15.5541C12.6104 15.8418 12.9217 16.2372 13.1087 16.6951C13.1707 16.8664 13.1776 17.053 13.1286 17.2286C13.0796 17.4041 12.9771 17.5596 12.8357 17.6732C12.6806 17.8191 12.5051 17.9411 12.3147 18.0354C12.0981 18.1452 11.8705 18.2314 11.6357 18.2926Z" fill="white"/>
<path d="M15.7958 11.2943C15.3061 10.8333 14.9782 10.2244 14.8617 9.55922C14.8258 9.29841 14.8078 9.04484 14.797 8.78042C14.7862 8.51599 14.797 8.24794 14.797 7.98351C14.797 7.71908 14.8509 7.45467 14.8976 7.183C14.9454 6.9126 15.0089 6.64528 15.088 6.38247C15.4292 5.24096 16.0183 4.19042 16.8125 3.30715C17.7214 2.30149 18.8306 1.50043 20.0674 0.956289C21.4724 0.335446 22.9883 0.010048 24.5223 0C25.4694 0.00129377 26.3902 0.314165 27.1449 0.89109C27.4684 1.12013 27.7395 1.41649 27.9396 1.76018C28.1398 2.10388 28.2645 2.4869 28.3053 2.88335C28.3165 3.20164 28.2428 3.51711 28.0917 3.79683C27.9407 4.07656 27.7179 4.31025 27.4467 4.47351C27.1675 4.64247 26.8629 4.76479 26.545 4.83574C26.1913 4.91402 25.8282 4.93966 25.4672 4.91182C24.5598 4.8518 23.6493 4.96485 22.7835 5.24506C22.3731 5.37854 21.9762 5.55077 21.5979 5.75944C21.4147 5.86449 21.2386 5.97677 21.0662 6.09269C20.8968 6.20425 20.7337 6.32518 20.5776 6.45492C20.2712 6.71123 19.9908 6.99758 19.7405 7.30977C19.6183 7.46191 19.5034 7.62491 19.3812 7.78429C19.2741 7.94416 19.1758 8.10982 19.0866 8.28054C18.7375 8.94231 18.5065 9.66078 18.404 10.4032C18.3669 10.6776 18.297 10.9464 18.1957 11.2037C18.1533 11.3113 18.1029 11.4154 18.0448 11.5152C18.019 11.5595 17.9901 11.6018 17.9585 11.642C17.9306 11.6822 17.9006 11.7209 17.8687 11.7579C17.7523 11.8953 17.5966 11.9931 17.423 12.0378C17.2493 12.0826 17.0662 12.0721 16.8987 12.0079C16.8008 11.978 16.7058 11.9392 16.6149 11.892C16.5161 11.8445 16.4202 11.7912 16.3275 11.7326C16.138 11.6023 15.9601 11.4557 15.7958 11.2943V11.2943Z" fill="#F1F1F1"/>
<path d="M23.883 11.4282C24.0342 10.7698 24.3951 10.1795 24.9105 9.74744C25.758 9.0888 26.7356 8.62071 27.7774 8.37461C28.927 8.10209 30.1223 8.09095 31.2766 8.342C32.5984 8.62978 33.8449 9.19642 34.9339 10.0046C36.1675 10.9264 37.2027 12.0909 37.9769 13.4277C38.4551 14.2528 38.6461 15.2154 38.5194 16.1625C38.5061 16.2722 38.4869 16.381 38.4619 16.4885C38.4368 16.5936 38.408 16.6986 38.3757 16.7964C38.3111 16.9906 38.2293 17.1785 38.1314 17.3579C37.9531 17.6825 37.6991 17.9585 37.3913 18.162C37.1233 18.3307 36.8154 18.424 36.4995 18.4323C36.1837 18.4406 35.8714 18.3635 35.595 18.2091C35.3055 18.0576 35.0451 17.8552 34.8262 17.6114C34.7054 17.4827 34.5949 17.3446 34.4956 17.1985C34.3948 17.0444 34.3024 16.8847 34.219 16.7203C33.8208 15.8986 33.2709 15.161 32.5987 14.547C31.9702 13.9737 31.2385 13.5273 30.4431 13.2321C29.7047 12.9625 28.9215 12.8395 28.1367 12.8699C27.7632 12.8836 27.3917 12.9309 27.0265 13.0111C26.6674 13.0907 26.3154 13.1998 25.9739 13.3371C25.7179 13.4423 25.45 13.5153 25.1763 13.5545C25.0572 13.5706 24.9372 13.5791 24.8171 13.5798C24.717 13.5767 24.6173 13.5658 24.5189 13.5472C24.3393 13.5167 24.1737 13.4305 24.0449 13.3007C23.9161 13.1709 23.8307 13.0038 23.8004 12.8228C23.7147 12.3581 23.743 11.8793 23.883 11.4282V11.4282Z" fill="white"/>
</svg>
