<svg width="105" height="103" viewBox="0 0 105 103" fill="none" xmlns="http://www.w3.org/2000/svg">
<path d="M74.9646 51.5315C76.7442 50.9832 78.6527 51.0362 80.3997 51.6824C81.0579 51.9539 81.7061 52.2656 82.3942 52.6074C83.0824 52.9493 83.6408 53.3314 84.2591 53.7437C85.5052 54.5939 86.6585 55.5746 87.6997 56.6696C89.9399 59.084 91.6223 61.9684 92.6262 65.1158C93.7687 68.7234 94.1392 72.5343 93.7132 76.2969C93.2189 80.5424 91.8862 84.645 89.7939 88.3629C88.4842 90.6502 86.4663 92.4411 84.0497 93.4607C83.4929 93.684 82.9193 93.8622 82.3344 93.9936C81.7841 94.1161 81.2226 94.1802 80.659 94.1847C79.6226 94.2174 78.5943 93.9894 77.6672 93.5211C76.8929 93.1073 76.2429 92.4915 75.785 91.7381C75.3272 90.9846 75.0783 90.1211 75.0644 89.2376C75.0101 87.306 75.5846 85.4096 76.6999 83.8381C78.0943 81.7147 79.0851 79.3485 79.6219 76.86C80.1214 74.5458 80.1755 72.1563 79.7814 69.8215C79.6917 69.2685 79.552 68.7054 79.4124 68.1725C79.3426 67.9111 79.2629 67.6497 79.1831 67.3882C79.1033 67.1268 78.9936 66.8553 78.8938 66.6039C78.7077 66.0967 78.4947 65.6 78.2556 65.1158C78.0063 64.6332 77.747 64.1706 77.4777 63.7182C76.378 61.9584 74.9845 60.4037 73.359 59.123C72.2502 58.3277 71.3861 57.2335 70.8659 55.9658C70.6928 55.4913 70.6719 54.974 70.8061 54.4868C70.9403 53.9997 71.2228 53.5675 71.6138 53.251C72.0434 52.8404 72.5349 52.501 73.0698 52.2455C73.6748 51.941 74.3099 51.7017 74.9646 51.5315V51.5315Z" fill="#7DB59A"/>
<path d="M63.4063 70.9675C64.7715 72.2424 65.6826 73.9349 65.9991 75.7838C66.099 76.5004 66.1589 77.2222 66.1786 77.9456C66.2185 78.6791 66.2185 79.4142 66.1786 80.1477C66.1188 80.8817 66.0291 81.6257 65.8994 82.3698C65.7659 83.1234 65.5894 83.8688 65.3709 84.602C64.4259 87.7686 62.7903 90.6819 60.584 93.1286C58.0552 95.9181 54.9736 98.1413 51.5388 99.6542C47.6422 101.378 43.4376 102.281 39.1827 102.309C36.5489 102.316 33.9865 101.446 31.8926 99.8352C30.9959 99.198 30.2447 98.375 29.6892 97.4212C29.1336 96.4674 28.7866 95.405 28.6715 94.305C28.6432 93.4222 28.8504 92.5478 29.2714 91.7732C29.6923 90.9986 30.3117 90.352 31.065 89.9009C31.8343 89.4202 32.6817 89.0798 33.5681 88.8954C34.5491 88.6736 35.5573 88.5991 36.5599 88.6742C39.0821 88.8453 41.6135 88.5314 44.0194 87.7492C45.1541 87.3796 46.2524 86.9049 47.3004 86.3314C47.819 86.0298 48.2977 85.7181 48.7863 85.3963C49.2565 85.0866 49.7093 84.7509 50.1427 84.3908C50.9907 83.6766 51.7688 82.882 52.4662 82.0179C52.8053 81.5956 53.1244 81.1431 53.4635 80.7007C53.8026 80.2582 54.032 79.8158 54.2813 79.3332C55.244 77.4935 55.885 75.5002 56.1761 73.441C56.2765 72.6789 56.4708 71.9324 56.7545 71.2188C56.8742 70.9179 57.0141 70.6257 57.1734 70.3441C57.2432 70.2234 57.3229 70.1027 57.4027 69.9921L57.652 69.6703C57.978 69.2899 58.4125 69.02 58.8961 68.8977C59.3798 68.7753 59.8891 68.8064 60.3547 68.9866C60.6262 69.0659 60.8899 69.1702 61.1425 69.2983C61.4187 69.4298 61.6853 69.5811 61.9403 69.7508C62.4672 70.107 62.9583 70.5145 63.4063 70.9675V70.9675Z" fill="#92E3A9"/>
<path d="M40.9578 70.5956C40.5353 72.422 39.5341 74.0598 38.1057 75.2611C35.7665 77.0831 33.0714 78.3854 30.1974 79.082C27.005 79.8298 23.6881 79.8573 20.4839 79.1624C16.8167 78.3562 13.3602 76.7764 10.3418 74.5271C6.91549 71.9749 4.04136 68.7452 1.89495 65.0352C0.567412 62.7411 0.0374328 60.0659 0.389068 57.4337C0.389068 57.132 0.478785 56.8304 0.538621 56.5388C0.598457 56.2472 0.698184 55.9556 0.787937 55.674C0.966304 55.1396 1.18989 54.6215 1.45615 54.1256C1.95484 53.2213 2.6631 52.4519 3.5205 51.8833C4.26542 51.4166 5.12058 51.1594 5.99735 51.1381C6.87411 51.1169 7.74055 51.3325 8.50682 51.7627C9.31224 52.1761 10.0355 52.7351 10.6409 53.4117C10.9783 53.7634 11.2853 54.1435 11.5585 54.5479C11.8351 54.9759 12.0881 55.419 12.3164 55.8752C13.4261 58.1561 14.9557 60.2034 16.824 61.9081C18.5708 63.4989 20.6013 64.7409 22.8076 65.5682C23.8409 65.9724 24.9092 66.2787 25.9988 66.4831C27.0536 66.6548 28.1224 66.7222 29.1901 66.6842C30.2268 66.646 31.258 66.5147 32.2716 66.2921C33.2687 66.0678 34.2459 65.7618 35.1936 65.3771C35.9008 65.0852 36.6411 64.8826 37.3976 64.7738C37.7279 64.7275 38.0614 64.7074 38.3948 64.7134C38.6697 64.7165 38.9436 64.7468 39.2126 64.804C39.7099 64.8915 40.1682 65.1316 40.5252 65.4915C40.8821 65.8514 41.1203 66.3136 41.2071 66.815C41.4238 68.0772 41.3383 69.3734 40.9578 70.5956V70.5956Z" fill="#7DB59A"/>
<path d="M30.0576 50.7774C28.2794 51.3355 26.3676 51.2824 24.6225 50.6265C23.9643 50.3551 23.3161 50.0434 22.628 49.7015C21.9873 49.3555 21.3648 48.9762 20.7631 48.5653C19.5171 47.7151 18.3638 46.7343 17.3225 45.6393C15.0844 43.2273 13.4022 40.3466 12.396 37.2032C11.2556 33.5917 10.8818 29.7787 11.299 26.012C11.7953 21.767 13.1278 17.6647 15.2183 13.9461C16.5324 11.6561 18.5532 9.8623 20.9725 8.83814C21.528 8.61351 22.1019 8.43859 22.6878 8.31532C23.2336 8.18469 23.7923 8.11721 24.3532 8.11421C25.3904 8.08542 26.4185 8.3169 27.345 8.78787C28.1214 9.19913 28.7731 9.8143 29.2313 10.5683C29.6895 11.3223 29.9371 12.1871 29.9479 13.0713C29.9956 15.002 29.4218 16.8964 28.3124 18.4708C26.9084 20.5854 25.9168 22.9502 25.3904 25.4389C24.8927 27.7531 24.8351 30.1415 25.2208 32.4774C25.3206 33.0404 25.4602 33.5935 25.5998 34.1264C25.6696 34.3979 25.7494 34.6593 25.8292 34.9207C25.909 35.1821 26.0087 35.4436 26.1084 35.695C26.3079 36.2078 26.5173 36.7004 26.7567 37.1831C26.996 37.6657 27.2652 38.1383 27.5345 38.5807C28.6311 40.3429 30.0251 41.898 31.6532 43.1758C32.7631 43.9742 33.6272 45.072 34.1464 46.3431C34.3184 46.8186 34.3377 47.3366 34.2017 47.8238C34.0657 48.311 33.7812 48.7427 33.3884 49.058C32.9581 49.463 32.4709 49.8018 31.9425 50.0635C31.3411 50.3682 30.7092 50.6075 30.0576 50.7774Z" fill="#92E3A9"/>
<path d="M41.606 31.3514C40.2467 30.0718 39.3367 28.3815 39.0131 26.5351C38.9134 25.8111 38.8635 25.1072 38.8336 24.3732C38.8037 23.6392 38.8336 22.8951 38.8336 22.1611C38.8336 21.4271 38.9832 20.6931 39.1129 19.939C39.2453 19.1884 39.4218 18.4464 39.6414 17.7168C40.5885 14.5482 42.2237 11.632 44.4283 9.18018C46.9514 6.3886 50.0301 4.165 53.4635 2.65452C57.3636 0.93115 61.5714 0.0278918 65.8296 0C68.4586 0.00359132 71.0147 0.872077 73.1096 2.47354C74.0077 3.10932 74.76 3.93198 75.3157 4.88602C75.8714 5.84006 76.2175 6.90328 76.3308 8.00377C76.3619 8.8873 76.1571 9.76301 75.7379 10.5395C75.3186 11.316 74.7002 11.9647 73.9474 12.4178C73.1722 12.8868 72.3269 13.2264 71.4442 13.4233C70.4625 13.6406 69.4546 13.7118 68.4524 13.6345C65.9336 13.4679 63.4062 13.7817 61.0028 14.5596C59.8637 14.9301 58.7619 15.4082 57.7118 15.9874C57.2032 16.279 56.7146 16.5907 56.2359 16.9124C55.7658 17.2221 55.313 17.5578 54.8796 17.9179C54.0291 18.6294 53.2507 19.4243 52.556 20.2909C52.2169 20.7132 51.8978 21.1657 51.5587 21.6081C51.2614 22.0519 50.9884 22.5117 50.741 22.9856C49.7719 24.8226 49.1305 26.817 48.8461 28.8778C48.7432 29.6394 48.549 30.3856 48.2678 31.1C48.1502 31.3986 48.0101 31.6876 47.8489 31.9647C47.7772 32.0874 47.6973 32.2051 47.6095 32.3167C47.532 32.4282 47.4488 32.5356 47.3602 32.6384C47.0371 33.0198 46.6049 33.2911 46.1229 33.4153C45.6409 33.5395 45.1326 33.5105 44.6676 33.3322C44.3958 33.2493 44.1321 33.1416 43.8798 33.0104C43.6056 32.8785 43.3393 32.7308 43.082 32.568C42.5559 32.2064 42.0621 31.7993 41.606 31.3514V31.3514Z" fill="#7DB59A"/>
<path d="M64.0546 31.7233C64.4744 29.8958 65.4762 28.2571 66.9069 27.0578C69.2595 25.2295 71.973 23.9301 74.865 23.247C78.056 22.4905 81.374 22.4596 84.5784 23.1565C88.2475 23.9553 91.7074 25.5282 94.7305 27.7717C98.1546 30.3303 101.028 33.5629 103.177 37.2737C104.505 39.5641 105.035 42.2361 104.683 44.8651C104.646 45.1695 104.593 45.4716 104.524 45.7701C104.454 46.0617 104.374 46.3533 104.284 46.6248C104.105 47.1637 103.878 47.6853 103.606 48.1833C103.111 49.0844 102.406 49.8506 101.552 50.4155C100.808 50.8837 99.9531 51.1428 99.0763 51.1658C98.1996 51.1887 97.3327 50.9748 96.5655 50.5462C95.7619 50.1256 95.0392 49.5638 94.4314 48.8871C94.0963 48.5298 93.7895 48.1465 93.5139 47.7408C93.2339 47.313 92.9776 46.8699 92.746 46.4136C91.6407 44.1326 90.1142 42.0851 88.2483 40.3806C86.5037 38.7893 84.4724 37.5502 82.2647 36.7306C80.2148 35.9823 78.0408 35.6409 75.8623 35.7252C74.8256 35.7634 73.7943 35.8947 72.7807 36.1173C71.7839 36.3383 70.8067 36.6409 69.8587 37.0223C69.1481 37.3143 68.4046 37.5169 67.6448 37.6256C67.3142 37.6703 66.9811 37.6939 66.6476 37.6959C66.3697 37.6873 66.093 37.6571 65.8198 37.6055C65.3214 37.5207 64.8615 37.2815 64.5041 36.9211C64.1467 36.5607 63.9094 36.097 63.8253 35.5945C63.5875 34.3046 63.6662 32.9755 64.0546 31.7233V31.7233Z" fill="#92E3A9"/>
</svg>
